<svg width="276" height="158" viewBox="0 0 276 158" fill="none" xmlns="http://www.w3.org/2000/svg">
<rect x="255" y="26" width="8" height="93" fill="#FFC700"/>
<rect x="255" y="97" width="8" height="22" rx="1" fill="#FFB800"/>
<rect x="247" y="99" width="23" height="34" rx="3" fill="#404040"/>
<rect x="247" y="99" width="7" height="34" rx="1" fill="#303030"/>
<rect x="233" y="88" width="17" height="55" rx="3" fill="#FFC700"/>
<rect x="231" y="88" width="11" height="55" rx="1" fill="#FFB800"/>
<path fill-rule="evenodd" clip-rule="evenodd" d="M7 0C3.13401 0 0 3.134 0 7V151C0 154.866 3.13401 158 7.00001 158H231C234.866 158 238 154.866 238 151V7C238 3.13401 234.866 0 231 0H7ZM14 7C10.134 7 7 10.134 7 14V144C7 147.866 10.134 151 14 151H223C226.866 151 230 147.866 230 144V14C230 10.134 226.866 7 223 7H14Z" fill="#FFC700"/>
<circle cx="258.5" cy="17.5" r="17.5" fill="#CD4141"/>
<circle cx="261" cy="15" r="14" fill="#EA4747"/>
<circle cx="264.5" cy="8.5" r="3.5" fill="#FFDFDF"/>
</svg>
